name Walk7.mot
datacolumns 19
datarows 12
range 1.88200000 1.89300000
endheader

                time	   L_ground_force_vx	   L_ground_force_vy	   L_ground_force_vz	   L_ground_force_px	   L_ground_force_py	   L_ground_force_pz	   R_ground_force_vx	   R_ground_force_vy	   R_ground_force_vz	   R_ground_force_px	   R_ground_force_py	   R_ground_force_pz	   L_ground_torque_x	   L_ground_torque_y	   L_ground_torque_z	   R_ground_torque_x	   R_ground_torque_y	   R_ground_torque_z	
          1.88200000	        -25.99968423	        650.25062277	        -50.11482813	          0.12535810	          0.00000000	          0.07641151	          0.00000000	          0.00000000	          0.00000000	          0.00000000	          0.00000000	          0.00000000	          0.00000000	          4.47861476	          0.00000000	          0.00000000	          0.00000000	          0.00000000	
          1.88300000	        -25.44058854	        648.32742992	        -49.97681815	          0.12566536	          0.00000000	          0.07639435	          0.00000000	          0.00000000	          0.00000000	          0.00000000	          0.00000000	          0.00000000	          0.00000000	          4.49009424	          0.00000000	          0.00000000	          0.00000000	          0.00000000	
          1.88400000	        -24.89637168	        646.48978096	        -49.83246827	          0.12601881	          0.00000000	          0.07637016	          0.00000000	          0.00000000	          0.00000000	          0.00000000	          0.00000000	          0.00000000	          0.00000000	          4.50523934	          0.00000000	          0.00000000	          0.00000000	          0.00000000	
          1.88500000	        -24.36483593	        644.71687731	        -49.68655788	          0.12638098	          0.00000000	          0.07632454	          0.00000000	          0.00000000	          0.00000000	          0.00000000	          0.00000000	          0.00000000	          0.00000000	          4.51722869	          0.00000000	          0.00000000	          0.00000000	          0.00000000	
          1.88600000	        -23.84383336	        642.98267045	        -49.54021750	          0.12671751	          0.00000000	          0.07624807	          0.00000000	          0.00000000	          0.00000000	          0.00000000	          0.00000000	          0.00000000	          0.00000000	          4.52081460	          0.00000000	          0.00000000	          0.00000000	          0.00000000	
          1.88700000	        -23.33013305	        641.29893722	        -49.39599524	          0.12702414	          0.00000000	          0.07614896	          0.00000000	          0.00000000	          0.00000000	          0.00000000	          0.00000000	          0.00000000	          0.00000000	          4.51858603	          0.00000000	          0.00000000	          0.00000000	          0.00000000	
          1.88800000	        -22.81881127	        639.72728038	        -49.25921788	          0.12732821	          0.00000000	          0.07605932	          0.00000000	          0.00000000	          0.00000000	          0.00000000	          0.00000000	          0.00000000	          0.00000000	          4.52062403	          0.00000000	          0.00000000	          0.00000000	          0.00000000	
          1.88900000	        -22.30881580	        638.33774623	        -49.12867803	          0.12767992	          0.00000000	          0.07602815	          0.00000000	          0.00000000	          0.00000000	          0.00000000	          0.00000000	          0.00000000	          0.00000000	          4.53239281	          0.00000000	          0.00000000	          0.00000000	          0.00000000	
          1.89000000	        -21.80228486	        637.13473135	        -48.99481127	          0.12810958	          0.00000000	          0.07608941	          0.00000000	          0.00000000	          0.00000000	          0.00000000	          0.00000000	          0.00000000	          0.00000000	          4.54861381	          0.00000000	          0.00000000	          0.00000000	          0.00000000	
          1.89100000	        -21.29832308	        636.04108944	        -48.85030750	          0.12859399	          0.00000000	          0.07622786	          0.00000000	          0.00000000	          0.00000000	          0.00000000	          0.00000000	          0.00000000	          0.00000000	          4.56193936	          0.00000000	          0.00000000	          0.00000000	          0.00000000	
          1.89200000	        -20.79511814	        634.98289424	        -48.69471176	          0.12908835	          0.00000000	          0.07639307	          0.00000000	          0.00000000	          0.00000000	          0.00000000	          0.00000000	          0.00000000	          0.00000000	          4.56999875	          0.00000000	          0.00000000	          0.00000000	          0.00000000	
          1.89300000	        -20.29671243	        633.95985797	        -48.52841335	          0.12956641	          0.00000000	          0.07654667	          0.00000000	          0.00000000	          0.00000000	          0.00000000	          0.00000000	          0.00000000	          0.00000000	          4.57329499	          0.00000000	          0.00000000	          0.00000000	          0.00000000	
